<?xml version="1.0" encoding="UTF-8"?>
<svg id="Camada_1" data-name="Camada 1" xmlns="http://www.w3.org/2000/svg" viewBox="0 0 1140.9 190.6">
  <defs>
    <style>
      .cls-1 {
        fill: #bfbfbf;
      }

      .cls-2 {
        fill: #1e1f1f;
      }

      .cls-3 {
        fill: #0082fc;
      }

      .cls-4 {
        fill: #ff3c3c;
      }
    </style>
  </defs>
  <g>
    <g>
      <path class="cls-4" d="m125.95,157.5h-26.7c-2.48,0-4.5-2.01-4.5-4.5v-23.34c0-2.48,2.01-4.5,4.5-4.5h26.7v-26.43c0-2.42,1.96-4.39,4.39-4.39h22.8c2.42,0,4.39,1.96,4.39,4.39v26.43h31.58V40.19c0-22.2-18-40.19-40.19-40.19H40.59C18.4,0,.4,18,.4,40.19v108.31c0,22.2,18,40.19,40.19,40.19h85.35v-31.2Z"/>
      <path class="cls-3" d="m157.52,157.5v30.27c15.15-3.31,27.11-15.17,30.56-30.27h-30.56Z"/>
    </g>
    <g>
      <path class="cls-2" d="m363.5,188.6v-114.6l-50.9,88.7h-8.1l-51-88.7v114.6h-13.8V49h14.2l54.5,95.6,54.9-95.6h14v139.6h-13.8Z"/>
      <path class="cls-2" d="m404.6,64.8v-19.7h13.4v19.7h-13.4Zm0,123.8v-102.4h13.4v102.4h-13.4Z"/>
      <path class="cls-2" d="m435.4,137.1c0-7.2,1.2-14,3.7-20.4s6-12,10.5-16.8,9.9-8.6,16.2-11.3c6.3-2.8,13.2-4.1,20.8-4.1,9.7,0,18.2,2.2,25.4,6.6s12.6,10.3,16.3,17.8l-13,4.1c-2.9-5.2-6.9-9.3-12.1-12.3-5.2-2.9-10.9-4.4-17.2-4.4-5.2,0-10.1,1.1-14.6,3.1-4.5,2.1-8.5,4.9-11.8,8.6-3.3,3.6-6,7.9-7.9,12.9s-2.9,10.4-2.9,16.3,1,11.2,2.9,16.3c2,5.1,4.7,9.5,8.1,13.3,3.4,3.7,7.4,6.7,11.9,8.8,4.5,2.2,9.3,3.2,14.5,3.2,3.3,0,6.5-.5,9.7-1.4s6.2-2.2,8.9-3.8c2.8-1.6,5.1-3.5,7.1-5.6s3.3-4.3,4.1-6.7l13.2,3.9c-1.4,3.7-3.5,7-6.3,10.1s-6,5.8-9.7,8.1c-3.7,2.3-7.9,4.1-12.4,5.3-4.5,1.2-9.2,1.9-14.1,1.9-7.5,0-14.4-1.4-20.6-4.2-6.3-2.8-11.7-6.7-16.3-11.6s-8.2-10.6-10.7-17c-2.4-6.4-3.7-13.3-3.7-20.7Z"/>
      <path class="cls-2" d="m596.7,98c-9,.3-16.9,2.8-23.6,7.5s-11.4,11.2-14.2,19.5v63.7h-13.4v-102.5h12.6v24.6c3.8-7.9,8.9-14,15.3-18.5s13.3-6.7,20.6-6.7c1,0,1.9.1,2.6.2v12.2h.1Z"/>
      <path class="cls-2" d="m648.2,190.6c-7.5,0-14.3-1.4-20.4-4.2-6.2-2.8-11.5-6.7-16-11.5s-8-10.5-10.5-16.9-3.7-13.2-3.7-20.3,1.3-14,3.8-20.4c2.6-6.4,6.1-12.1,10.6-16.9s9.9-8.7,16-11.6c6.2-2.9,12.9-4.3,20.3-4.3s14.1,1.4,20.4,4.3c6.2,2.9,11.6,6.8,16.1,11.6,4.5,4.9,8.1,10.5,10.6,16.9,2.6,6.4,3.8,13.2,3.8,20.4s-1.2,13.8-3.7,20.3c-2.5,6.4-6,12.1-10.5,16.9-4.5,4.9-9.9,8.7-16.1,11.5-6.4,2.8-13.3,4.2-20.7,4.2Zm-37.2-52.7c0,5.8,1,11.1,2.9,16,2,4.9,4.6,9.2,8,13,3.3,3.7,7.3,6.7,11.8,8.8s9.3,3.1,14.5,3.1,9.9-1.1,14.5-3.2c4.5-2.2,8.5-5.1,11.9-8.8,3.4-3.7,6.1-8.1,8.1-13.1s2.9-10.4,2.9-16.1-1-11-2.9-16c-2-5-4.7-9.4-8.1-13.2-3.4-3.7-7.4-6.7-11.9-8.8-4.5-2.2-9.3-3.2-14.5-3.2s-9.9,1.1-14.4,3.2c-4.5,2.2-8.4,5.1-11.8,8.9s-6.1,8.2-8.1,13.3c-1.9,4.9-2.9,10.3-2.9,16.1Z"/>
      <path class="cls-2" d="m869,188.6h-13.4v-57.2c0-11.9-1.9-20.7-5.7-26.3-3.8-5.6-9.4-8.5-16.9-8.5-3.9,0-7.6.7-11.1,2.2-3.5,1.4-6.7,3.5-9.6,6.1-2.9,2.6-5.5,5.7-7.8,9.3-2.2,3.6-3.9,7.6-5.1,11.9v62.5h-13.4v-57.2c0-12.2-1.8-21-5.5-26.5s-9.3-8.3-16.9-8.3-14.6,2.7-20.6,8.1-10.4,12.5-13,21.2v62.7h-13.4v-102.4h12.2v23.2c4.2-7.9,9.7-14,16.5-18.4,6.8-4.4,14.4-6.6,22.6-6.6,8.7,0,15.6,2.4,20.7,7.3,5.2,4.9,8.4,11.2,9.5,19.1,9.6-17.6,22.7-26.3,39.5-26.3,5.8,0,10.6,1.1,14.6,3.1,4,2.1,7.2,5.1,9.6,8.9,2.4,3.9,4.2,8.5,5.3,14,1.1,5.4,1.7,11.5,1.7,18.2v59.9h.2Z"/>
      <path class="cls-2" d="m936.6,190.6c-7.5,0-14.3-1.4-20.5-4.2-6.2-2.8-11.6-6.7-16.2-11.6s-8.2-10.6-10.7-17c-2.6-6.4-3.8-13.3-3.8-20.6s1.3-14,3.8-20.4c2.6-6.4,6.1-11.9,10.6-16.7s9.9-8.6,16.2-11.4c6.3-2.8,13.1-4.2,20.4-4.2s14.3,1.4,20.5,4.2c6.2,2.8,11.6,6.7,16,11.5,4.5,4.9,7.9,10.4,10.4,16.7s3.7,13,3.7,20.1v3.1c0,1.1-.1,1.8-.2,2.2h-87.7c.4,5.5,1.7,10.6,3.8,15.2,2.2,4.7,4.9,8.7,8.4,12.1,3.4,3.4,7.3,6.1,11.7,8s9.1,2.9,14.1,2.9c3.3,0,6.6-.5,9.8-1.4,3.3-.9,6.3-2.2,9-3.7,2.8-1.6,5.2-3.5,7.5-5.8,2.2-2.3,3.9-4.8,5.1-7.6l11.6,3.1c-1.6,3.8-3.8,7.2-6.7,10.3s-6.2,5.8-10,8.1-8,4.1-12.6,5.3c-4.4,1.2-9.2,1.8-14.2,1.8Zm37.8-58.6c-.4-5.5-1.7-10.5-3.8-15-2.2-4.5-4.9-8.4-8.3-11.7-3.3-3.3-7.2-5.8-11.6-7.7-4.4-1.8-9.1-2.8-14.1-2.8s-9.7.9-14.2,2.8c-4.5,1.8-8.4,4.4-11.7,7.7s-6,7.2-8.1,11.8c-2,4.6-3.2,9.6-3.6,14.9h75.4Z"/>
      <path class="cls-2" d="m1050.9,190.6c-7.1,0-13.6-1.5-19.7-4.4-6-2.9-11.2-6.8-15.5-11.7-4.3-4.8-7.7-10.5-10.1-16.8-2.4-6.4-3.6-13-3.6-20s1.2-14.1,3.5-20.5c2.4-6.5,5.6-12.2,9.7-17s9-8.7,14.7-11.5c5.7-2.8,12-4.2,18.8-4.2,8.7,0,16.3,2.3,23,6.8,6.7,4.5,11.9,10,15.7,16.4v-62.6h13.4v126.2c0,3.7,1.6,5.5,4.7,5.5v11.8c-2,.4-3.5.6-4.7.6-3.1,0-5.9-1-8.3-3s-3.5-4.5-3.5-7.4v-10c-4.1,6.7-9.6,12-16.5,15.9-7,3.9-14.2,5.9-21.6,5.9Zm2.9-11.8c3.3,0,6.8-.7,10.5-2,3.7-1.3,7.2-3.1,10.5-5.4,3.3-2.3,6.1-5,8.4-8.1,2.3-3.1,3.7-6.4,4.2-9.9v-31.7c-1.3-3.5-3.2-6.8-5.7-9.9s-5.3-5.8-8.6-8.2c-3.2-2.4-6.7-4.2-10.3-5.5-3.7-1.3-7.3-2-10.8-2-5.5,0-10.5,1.2-14.9,3.5-4.5,2.4-8.3,5.5-11.5,9.3-3.2,3.9-5.7,8.3-7.4,13.3-1.7,5-2.6,10.1-2.6,15.3,0,5.5,1,10.7,2.9,15.7,2,5,4.7,9.3,8.1,13.1,3.4,3.7,7.4,6.7,12.1,8.9,4.7,2.5,9.7,3.6,15.1,3.6Z"/>
    </g>
  </g>
  <path class="cls-1" d="m1131.9,190.6c-1.3,0-2.5-.2-3.6-.6-1.1-.4-2-1-2.8-1.8s-1.4-1.7-1.9-2.7c-.4-1-.7-2.2-.7-3.4s.2-2.3.7-3.4c.4-1,1.1-1.9,1.9-2.7s1.7-1.4,2.8-1.8,2.3-.6,3.6-.6,2.5.2,3.6.6,2,1,2.9,1.8c.8.8,1.4,1.7,1.9,2.7.4,1,.7,2.2.7,3.4s-.2,2.4-.7,3.4c-.4,1-1.1,1.9-1.9,2.7-.8.8-1.8,1.4-2.9,1.8-1.1.4-2.3.6-3.6.6Zm0-1.2c1.4,0,2.7-.3,3.8-.9,1.1-.6,2.1-1.5,2.7-2.6.7-1.1,1-2.3,1-3.8,0-1-.2-2-.6-2.9-.4-.9-.9-1.7-1.6-2.3-.7-.7-1.5-1.2-2.4-1.6-.9-.4-1.9-.6-3-.6s-2.1.2-3,.6c-.9.4-1.7.9-2.4,1.5-.7.7-1.2,1.4-1.6,2.3-.4.9-.5,1.8-.5,2.8s.2,2,.5,2.9c.4.9.9,1.7,1.6,2.3.7.7,1.5,1.2,2.4,1.6,1,.5,2,.7,3.1.7Zm-3.8-12.5h4.6c.6,0,1.2.2,1.7.5s.9.8,1.2,1.3.4,1.1.4,1.6c0,.4-.1.8-.2,1.2-.1.4-.4.8-.7,1.1-.3.3-.6.5-1,.7l2.4,3.9h-2.5l-2.2-3.5h-1.5v3.5h-2.2v-10.3h0Zm4.4,5c.4,0,.7-.1.9-.4.2-.3.3-.7.3-1.1,0-.5-.1-.9-.4-1.2-.3-.2-.6-.4-.9-.4h-2.1v3.1h2.2Z"/>
</svg>